<?xml version="1.0" encoding="UTF-8"?>
<svg id="Layer_2" data-name="Layer 2" xmlns="http://www.w3.org/2000/svg" viewBox="0 0 336.35 418.5">
  <defs>
    <style>
      .cls-1 {
        fill: #231f20;
      }
    </style>
  </defs>
  <g id="Layer_1-2" data-name="Layer 1">
    <g>
      <g>
        <path class="cls-1" d="M88.9,192.47l5.33-3.16c.19-.11.18-.39-.02-.49l-5.53-2.78c-.77-.39-1.38-1.03-1.72-1.82l-3.38-7.76c-.1-.23-.43-.22-.52.02l-2.83,7.98c-.29.81-.85,1.49-1.59,1.93l-5.33,3.16c-.19.11-.18.39.02.49l5.53,2.78c.77.39,1.38,1.03,1.72,1.82l3.38,7.76c.1.23.43.22.52-.02l2.83-7.98c.29-.81.85-1.49,1.59-1.93Z"/>
        <path class="cls-1" d="M146.18,149.16l2.28-1.35c.08-.05.08-.17,0-.21l-2.36-1.19c-.33-.16-.59-.44-.73-.78l-1.44-3.32c-.04-.1-.18-.09-.22,0l-1.21,3.41c-.12.35-.36.64-.68.83l-2.28,1.35c-.08.05-.08.17,0,.21l2.36,1.19c.33.16.59.44.73.78l1.44,3.32c.04.1.18.09.22,0l1.21-3.41c.12-.35.36-.64.68-.83Z"/>
        <path class="cls-1" d="M60.3,236.12l1.51-.9c.05-.03.05-.11,0-.14l-1.57-.79c-.22-.11-.39-.29-.49-.52l-.96-2.21c-.03-.07-.12-.06-.15,0l-.8,2.27c-.08.23-.24.42-.45.55l-1.51.9c-.05.03-.05.11,0,.14l1.57.79c.22.11.39.29.49.52l.96,2.21c.03.07.12.06.15,0l.8-2.27c.08-.23.24-.42.45-.55Z"/>
        <path class="cls-1" d="M58.9,167.21l1.51-.9c.05-.03.05-.11,0-.14l-1.57-.79c-.22-.11-.39-.29-.49-.52l-.96-2.21c-.03-.07-.12-.06-.15,0l-.8,2.27c-.08.23-.24.42-.45.55l-1.51.9c-.05.03-.05.11,0,.14l1.57.79c.22.11.39.29.49.52l.96,2.21c.03.07.12.06.15,0l.8-2.27c.08-.23.24-.42.45-.55Z"/>
      </g>
      <path class="cls-1" d="M260.94,193.76c.69.38,1.56.13,1.94-.56l.26-.47c.38-.69.13-1.56-.56-1.94-.69-.38-1.56-.13-1.94.56l-.26.47c-.38.69-.13,1.56.56,1.94Z"/>
      <path class="cls-1" d="M325.65,235.63c1.92,66.16-39.22,125.79-100.3,150.24C112.96,429.87,3.99,355.53.11,235.63-3.26,144.67,73.9,72.88,163.12,73.02c90.47-1.19,162.16,72.95,162.53,162.61h0ZM319.69,235.63c1.97-96.19-93.37-173.3-187.11-153.5C61.35,95.85,8.63,164.08,7.03,235.63c-3.87,107.11,118.58,187.36,215.98,144.6,57-23.72,95.6-83.19,96.68-144.6h0Z"/>
      <path class="cls-1" d="M326.25,114.83c-12.85,1.84-24.33,7.54-35.14,15.11-7.78,5.49-15.55,10.43-20.07,13.64-2.3,1.63-.91-3.64.07-5.45,1.84-3.37,4.39-6.63,4.68-16.2.47-3.17,5.86-10.05,2.99-20.38-1.27-4.55,2.3-9.82,2.29-14.89.17-4.09-1.43-8.13-.81-12.21.66-4.35,8.79-17.02.03-30.77-2.82-5.16,3.49-12.48,1.12-20.91-1.14-4.28-4.82-4.39-5.34-10.96-.07-3.9.89-10.03-2.81-11.7-3.39-.98-8.96,4.56-11.33,7.21-24.96,28.01-29.88,57.92-44.32,105.1-3.09,8.74-6.87,11.67-16.09,43.83-13.15,44.62-5.8,44.42-15.09,40.52-26.69-11.21-45.83.56-56.17,23.9-3.01,6.8-2.55,14.16-8.86,19.45-18.94,16.6-27.18,22.24-39.09,37.89-4.56,6.07-9.74,14.52-5.58,10.5,16.79-15.86,29.61-30.41,53.14-40.16,10.19-4.02,23.11-1.65,31.03,5.52,8.69,8.02,8.82,20.35,31.96,31.23,4.68,2.2,15.17,8.45,25.71,10.11,4.55.72,8.07,2,12.26,6.76,4.22,5.03,3.79,3.91-6.74,12.51-6.66,5.58-36.05,28.27-29.5,33.97,1.33,1.15,5.21.17,4.94,2.16-.61,1.61-9.14,13.53-7.02,23.67,1.66,4.76,6.52,7.34,11.55,6.13,1.09-.22,2.21-.65,3.28-.76,2.59-.12.91,3.35.51,5.7-3.13,13.85,4.18,20.34,10.18,18.43,10.8-2.54,17.35-21.5,18-6.56.06,1.88.07,3.73.1,5.63.37,13.3,5.89,21.78,16.14,10.19,8.25-9.67,11.92-25.43,11.82-17.5-.05,10.03,2.89,6,6.38-1.58,3.7-7.64,6.23-13.9,8.26-20.73,1.45-4.96,8.4-44.58,8.83-57.49-.25-11.97-2.62-24.28-3.77-36.11-1.76-11.42-10.24-27.06-17.42-36.12-2.09-2.54.85-3.43,2.21-7.02,1.05-2.76-.47-5.09.87-7.23,1.61-2.39,4.43-4.03,5.71-6.71,3.78-7.15,3.74-5.06,8.39-9.73,1.64-1.96,3.59-4.2,2.53-6.74-.58-1.36-1.59-2.51-1.3-3.46,1.07-2.93,12.48-5.83,14.73-13.18.57-2.78-2.15-5.75.82-7.67,5.81-3.77,11.47-6.86,14.68-13.41,6.7-11.85-2.35-11.47,4.21-17.53,14-13.36,7.02-14.78,8.03-19.41,1.6-5.39,20.27-19.64-1-16.59Z"/>
    </g>
  </g>
</svg>